<?xml version="1.0" standalone="no"?>
<!DOCTYPE svg PUBLIC "-//W3C//DTD SVG 20010904//EN"
 "http://www.w3.org/TR/2001/REC-SVG-20010904/DTD/svg10.dtd">
<svg version="1.0" xmlns="http://www.w3.org/2000/svg"
 width="344.000000pt" height="344.000000pt" viewBox="0 0 344.000000 344.000000"
 preserveAspectRatio="xMidYMid meet">
<metadata>
Created by potrace 1.11, written by Peter Selinger 2001-2013
</metadata>
<g transform="translate(0.000000,344.000000) scale(0.100000,-0.100000)"
fill="#000000" stroke="none">
<path d="M0 3249 c0 -5 5 -7 10 -4 5 3 10 8 10 11 0 2 -4 4 -10 4 -5 0 -10 -5
-10 -11z"/>
<path d="M3320 3245 c0 -9 -55 -41 -142 -84 -193 -94 -583 -300 -686 -363
-118 -71 -223 -158 -266 -221 -74 -107 -72 -214 9 -547 52 -214 170 -781 186
-896 13 -95 4 -177 -23 -223 -29 -46 -97 -87 -196 -118 -71 -22 -85 -24 -97
-12 -12 12 -15 147 -20 794 -3 429 -8 957 -11 1173 -6 356 -8 393 -23 390 -15
-3 -16 -100 -16 -1181 0 -1155 0 -1179 -19 -1193 -27 -19 -80 -18 -97 2 -15
19 -29 419 -48 1429 -17 876 -19 933 -42 946 -13 7 -26 6 -41 -2 l-21 -11 7
-412 c8 -476 20 -982 36 -1555 10 -319 10 -405 0 -411 -16 -10 -91 -1 -107 13
-15 11 -16 945 -4 1852 6 431 5 512 -7 522 -17 14 -38 7 -47 -15 -4 -9 -6
-540 -5 -1178 1 -1056 -1 -1163 -15 -1178 -21 -21 -47 -20 -75 2 l-22 18 12
199 c6 110 15 335 20 500 5 165 13 410 19 545 31 682 39 1086 22 1103 -22 22
-39 -2 -45 -65 -7 -78 -31 -772 -51 -1508 -9 -305 -19 -604 -23 -665 l-7 -110
-41 -3 c-68 -5 -69 -1 -50 231 18 228 68 975 91 1382 9 149 22 347 30 440 20
228 20 301 -1 309 -21 8 -36 7 -51 -2 -14 -9 -48 -427 -78 -952 -15 -252 -52
-777 -59 -825 -2 -11 -4 -28 -5 -38 0 -10 -5 -16 -10 -12 -6 3 -7 262 -3 678
4 369 7 778 7 907 l0 235 -26 3 -27 3 -6 -403 c-3 -222 -10 -736 -15 -1143 -5
-407 -12 -748 -16 -758 -10 -23 -33 -20 -143 23 -108 41 -195 99 -212 139 -33
80 9 311 174 956 122 478 135 546 117 612 -19 70 -58 98 -211 147 -165 54
-463 139 -545 156 -121 24 -360 82 -377 91 -16 8 -18 4 -18 -31 0 -29 3 -38
14 -34 48 19 566 -236 710 -349 54 -43 90 -124 82 -183 -10 -73 -94 -316 -259
-744 -155 -403 -248 -660 -263 -730 -20 -94 -18 -217 4 -260 23 -46 89 -95
154 -114 134 -38 420 -82 625 -95 73 -5 137 -12 143 -16 15 -9 13 -208 -2
-223 -9 -9 90 -12 447 -12 357 0 456 3 447 12 -8 8 -12 56 -12 150 0 164 -7
155 145 188 280 60 333 78 466 157 101 59 173 123 201 177 33 62 37 205 9 312
-32 124 -108 356 -161 489 -26 66 -75 199 -109 295 -104 301 -120 392 -81 479
33 72 118 168 251 285 69 61 178 159 241 217 107 97 347 272 376 272 7 0 12
13 12 29 0 28 -1 28 -60 28 -46 0 -60 -3 -60 -15z"/>
<path d="M0 180 c0 -5 5 -10 11 -10 5 0 7 5 4 10 -3 6 -8 10 -11 10 -2 0 -4
-4 -4 -10z"/>
</g>
</svg>
